<?xml version="1.0" encoding="UTF-8"?>
<!DOCTYPE svg PUBLIC "-//W3C//DTD SVG 1.1//EN" "http://www.w3.org/Graphics/SVG/1.1/DTD/svg11.dtd">
<svg xmlns="http://www.w3.org/2000/svg" version="1.1" width="1672px" height="941px" style="shape-rendering:geometricPrecision; text-rendering:geometricPrecision; image-rendering:optimizeQuality; fill-rule:evenodd; clip-rule:evenodd" xmlns:xlink="http://www.w3.org/1999/xlink">
<g><path style="opacity:1" fill="#06111f" d="M -0.5,-0.5 C 556.833,-0.5 1114.17,-0.5 1671.5,-0.5C 1671.5,313.167 1671.5,626.833 1671.5,940.5C 1114.17,940.5 556.833,940.5 -0.5,940.5C -0.5,626.833 -0.5,313.167 -0.5,-0.5 Z"/></g>
<g><path style="opacity:1" fill="#95beed" d="M 506.5,299.5 C 505.5,299.5 504.5,299.5 503.5,299.5C 503.815,301.226 503.981,302.893 504,304.5C 502.927,303.72 501.76,303.887 500.5,305C 501.737,305.232 502.737,305.732 503.5,306.5C 494.924,304.858 486.257,304.191 477.5,304.5C 477.5,302.167 477.5,299.833 477.5,297.5C 487.307,295.859 496.974,296.525 506.5,299.5 Z"/></g>
<g><path style="opacity:1" fill="#0c1629" d="M 446.5,288.5 C 446.5,290.167 446.5,291.833 446.5,293.5C 445.522,293.811 444.855,294.478 444.5,295.5C 445.764,299.153 445.764,302.82 444.5,306.5C 442.902,307.485 441.235,307.651 439.5,307C 439.833,306.667 440.167,306.333 440.5,306C 391.5,305.333 342.5,305.333 293.5,306C 296.167,306.333 298.833,306.667 301.5,307C 297.805,307.318 294.138,307.818 290.5,308.5C 288.143,307.905 285.977,306.905 284,305.5C 283.617,306.056 283.117,306.389 282.5,306.5C 282.335,303.482 282.502,300.482 283,297.5C 284.011,298.337 285.178,298.67 286.5,298.5C 286.205,300.735 286.539,302.735 287.5,304.5C 337.833,304.5 388.167,304.5 438.5,304.5C 439.036,301.302 438.369,298.635 436.5,296.5C 437.542,295.209 438.708,295.209 440,296.5C 440.494,294.866 440.66,293.199 440.5,291.5C 442.199,291.66 443.866,291.494 445.5,291C 444.434,289.841 444.767,289.008 446.5,288.5 Z"/></g>
<g><path style="opacity:1" fill="#06111f" d="M 477.5,297.5 C 477.5,299.833 477.5,302.167 477.5,304.5C 486.257,304.191 494.924,304.858 503.5,306.5C 520.295,312.467 531.128,324.133 536,341.5C 536.817,424.848 536.65,508.181 535.5,591.5C 529.868,610.298 517.535,622.131 498.5,627C 409.167,627.5 319.834,627.667 230.5,627.5C 227.763,627.599 225.096,627.265 222.5,626.5C 203.193,619.568 192.193,605.901 189.5,585.5C 190.833,505.833 190.833,426.167 189.5,346.5C 193.373,324.126 206.373,310.293 228.5,305C 235.158,304.5 241.825,304.334 248.5,304.5C 248.5,301.833 248.5,299.167 248.5,296.5C 249.468,298.607 249.802,300.941 249.5,303.5C 251.564,303.687 253.564,304.187 255.5,305C 254.833,305.333 254.167,305.667 253.5,306C 254.199,309.8 254.865,313.633 255.5,317.5C 252.97,318.132 250.637,319.132 248.5,320.5C 249.95,321.85 250.617,323.516 250.5,325.5C 253.713,325.81 256.713,325.477 259.5,324.5C 267.041,329.058 273.708,328.058 279.5,321.5C 280.622,322.947 282.122,323.947 284,324.5C 286.091,322.44 285.758,320.773 283,319.5C 282.501,315.179 282.334,310.846 282.5,306.5C 283.117,306.389 283.617,306.056 284,305.5C 285.977,306.905 288.143,307.905 290.5,308.5C 294.138,307.818 297.805,307.318 301.5,307C 298.833,306.667 296.167,306.333 293.5,306C 342.5,305.333 391.5,305.333 440.5,306C 440.167,306.333 439.833,306.667 439.5,307C 441.235,307.651 442.902,307.485 444.5,306.5C 445.764,302.82 445.764,299.153 444.5,295.5C 444.855,294.478 445.522,293.811 446.5,293.5C 446.334,302.173 446.5,310.84 447,319.5C 450.558,327.443 456.391,329.61 464.5,326C 468.227,323.045 470.227,319.212 470.5,314.5C 471.117,314.389 471.617,314.056 472,313.5C 472.609,309.476 472.442,305.476 471.5,301.5C 471.987,296.808 472.654,292.141 473.5,287.5C 476.103,286.438 478.77,286.272 481.5,287C 480.232,290.149 477.898,292.149 474.5,293C 477.167,293.667 477.167,294.333 474.5,295C 475.373,296.045 476.373,296.878 477.5,297.5 Z"/></g>
<g><path style="opacity:1" fill="#8aadd9" d="M 436.5,296.5 C 438.369,298.635 439.036,301.302 438.5,304.5C 388.167,304.5 337.833,304.5 287.5,304.5C 287.5,301.833 287.5,299.167 287.5,296.5C 337.167,296.5 386.833,296.5 436.5,296.5 Z"/></g>
<g><path style="opacity:1" fill="#a7cef7" d="M 430.5,297.5 C 426.705,299.175 422.538,300.175 418,300.5C 411.577,299.843 405.077,299.509 398.5,299.5C 391.76,299.522 385.26,300.188 379,301.5C 369.98,300.135 359.98,299.135 349,298.5C 347.079,300.377 344.746,301.377 342,301.5C 326.345,298.824 310.512,298.158 294.5,299.5C 294.5,300.5 294.5,301.5 294.5,302.5C 341.501,302.667 388.501,302.5 435.5,302C 433.956,301.71 432.623,301.044 431.5,300C 433.619,299.658 433.953,298.825 432.5,297.5C 434.167,297.5 435.833,297.5 437.5,297.5C 437.5,299.5 437.5,301.5 437.5,303.5C 387.833,303.5 338.167,303.5 288.5,303.5C 288.5,301.5 288.5,299.5 288.5,297.5C 335.833,297.5 383.167,297.5 430.5,297.5 Z"/></g>
<g><path style="opacity:1" fill="#9ec7f6" d="M 430.5,297.5 C 431.167,297.5 431.833,297.5 432.5,297.5C 433.953,298.825 433.619,299.658 431.5,300C 432.623,301.044 433.956,301.71 435.5,302C 388.501,302.5 341.501,302.667 294.5,302.5C 294.5,301.5 294.5,300.5 294.5,299.5C 310.512,298.158 326.345,298.824 342,301.5C 344.746,301.377 347.079,300.377 349,298.5C 359.98,299.135 369.98,300.135 379,301.5C 385.26,300.188 391.76,299.522 398.5,299.5C 405.077,299.509 411.577,299.843 418,300.5C 422.538,300.175 426.705,299.175 430.5,297.5 Z"/></g>
<g><path style="opacity:1" fill="#9ac5f3" d="M 470.5,314.5 C 470.227,319.212 468.227,323.045 464.5,326C 456.391,329.61 450.558,327.443 447,319.5C 446.5,310.84 446.334,302.173 446.5,293.5C 446.5,291.833 446.5,290.167 446.5,288.5C 448.883,278.636 454.883,275.469 464.5,279C 466,280.5 467.5,282 469,283.5C 470.426,293.754 470.926,304.088 470.5,314.5 Z"/></g>
<g><path style="opacity:1" fill="#9ac2e9" d="M 279.5,321.5 C 273.708,328.058 267.041,329.058 259.5,324.5C 258.489,322.628 257.655,320.628 257,318.5C 256.333,307.5 256.333,296.5 257,285.5C 261.454,277.06 267.954,275.226 276.5,280C 277.701,280.903 278.535,282.069 279,283.5C 280.832,296.129 280.999,308.795 279.5,321.5 Z"/></g>
<g><path style="opacity:1" fill="#9dc7f9" d="M 267.5,278.5 C 268.5,278.5 269.5,278.5 270.5,278.5C 270.5,279.5 270.5,280.5 270.5,281.5C 271.93,281.579 273.264,281.246 274.5,280.5C 275.5,280.833 276.167,281.5 276.5,282.5C 272.73,283.254 272.73,285.087 276.5,288C 274.717,289.067 274.217,290.567 275,292.5C 276,291.833 277,291.167 278,290.5C 278.667,300.167 278.667,309.833 278,319.5C 277.047,321.455 275.713,323.122 274,324.5C 272.255,323.044 270.422,321.711 268.5,320.5C 267.808,321.025 267.308,321.692 267,322.5C 265.235,321.761 263.235,321.761 261,322.5C 258.408,319.291 258.408,316.291 261,313.5C 261.167,312.333 261.333,311.167 261.5,310C 260.969,307.143 259.969,304.477 258.5,302C 259.585,299.587 260.585,297.087 261.5,294.5C 260.781,291.687 260.114,288.854 259.5,286C 259.645,285.228 259.978,284.561 260.5,284C 263.928,283.39 266.262,281.557 267.5,278.5 Z"/></g>
<g><path style="opacity:1" fill="#a3caf0" d="M 248.5,296.5 C 248.5,299.167 248.5,301.833 248.5,304.5C 241.825,304.334 235.158,304.5 228.5,305C 206.373,310.293 193.373,324.126 189.5,346.5C 188.509,425.471 188.175,504.471 188.5,583.5C 187.667,504.334 187.167,425.001 187,345.5C 186.5,346 186,346.5 185.5,347C 185.944,348.533 186.277,350.033 186.5,351.5C 185.67,429.46 185.17,507.46 185,585.5C 183.108,586.617 182.275,588.284 182.5,590.5C 181.501,509.335 181.167,428.002 181.5,346.5C 182.913,343.781 183.58,340.781 183.5,337.5C 189.766,316.736 203.432,303.569 224.5,298C 232.453,296.777 240.453,296.277 248.5,296.5 Z"/></g>
<g><path style="opacity:1" fill="#060c1e" d="M 668.5,308.5 C 672.136,309.827 675.803,309.827 679.5,308.5C 680.665,309.491 681.832,310.491 683,311.5C 685.506,310.29 688.006,309.457 690.5,309C 691.641,309.741 691.641,310.575 690.5,311.5C 689.726,312.711 688.893,312.711 688,311.5C 685.239,321.026 686.406,321.693 691.5,313.5C 694.273,311.943 696.607,312.443 698.5,315C 697.407,316.365 696.074,316.699 694.5,316C 695.888,315.111 695.722,314.611 694,314.5C 692.72,314.613 691.887,315.28 691.5,316.5C 694.053,316.54 695.053,318.206 694.5,321.5C 695.5,321.5 696.5,321.5 697.5,321.5C 697.281,322.675 697.614,323.675 698.5,324.5C 701.587,324.057 704.587,323.724 707.5,323.5C 707.5,324.5 707.5,325.5 707.5,326.5C 708.822,326.67 709.989,326.337 711,325.5C 711.617,326.449 711.451,327.282 710.5,328C 708.527,328.495 706.527,328.662 704.5,328.5C 704.719,327.325 704.386,326.325 703.5,325.5C 702.622,328.276 703.456,330.609 706,332.5C 707.333,331.833 708.667,331.167 710,330.5C 709.84,333.509 711.007,335.675 713.5,337C 713.412,338.578 713.412,340.078 713.5,341.5C 714.308,341.192 714.975,340.692 715.5,340C 714.167,339 714.167,338 715.5,337C 714.167,336 712.833,335 711.5,334C 714.502,333.566 717.169,332.399 719.5,330.5C 720.287,331.242 720.953,332.075 721.5,333C 719.899,333.273 718.399,333.773 717,334.5C 714.768,340.911 716.935,343.578 723.5,342.5C 723.187,339.753 723.52,337.086 724.5,334.5C 727.738,336.095 730.738,335.762 733.5,333.5C 733.414,336.303 734.747,338.637 737.5,340.5C 737,340.833 736.5,341.167 736,341.5C 732.69,339.756 729.19,338.922 725.5,339C 726.167,340 726.833,341 727.5,342C 726.234,342.309 725.067,342.809 724,343.5C 723.576,345.515 722.742,347.349 721.5,349C 722.943,351.078 722.276,351.911 719.5,351.5C 719.665,349.173 720.331,347.007 721.5,345C 720.552,344.517 719.552,344.351 718.5,344.5C 718.598,347.961 717.932,351.294 716.5,354.5C 716.977,355.478 717.643,356.311 718.5,357C 716.061,356.104 713.394,355.437 710.5,355C 710.387,350.728 710.387,346.061 710.5,341C 706.748,340.024 706.082,340.69 708.5,343C 707.572,343.388 706.905,344.055 706.5,345C 708.182,346.895 708.682,349.062 708,351.5C 707.346,350.304 706.846,350.304 706.5,351.5C 707.167,352.5 707.833,353.5 708.5,354.5C 708.167,354.833 707.833,355.167 707.5,355.5C 706.476,354.147 705.143,353.48 703.5,353.5C 703.966,351.799 703.966,350.299 703.5,349C 707.376,349.349 707.376,348.516 703.5,346.5C 703.757,342.858 703.757,339.192 703.5,335.5C 700.167,335.5 696.833,335.5 693.5,335.5C 693.628,337.655 693.128,339.655 692,341.5C 690.126,341.81 688.293,341.31 686.5,340C 687.793,339.51 689.127,339.343 690.5,339.5C 690.5,338.167 690.5,336.833 690.5,335.5C 688.099,334.951 685.765,334.118 683.5,333C 685.744,332.004 687.577,330.504 689,328.5C 689.677,330.689 690.844,331.022 692.5,329.5C 693.219,331.517 694.386,333.183 696,334.5C 696.5,334.167 697,333.833 697.5,333.5C 694.54,329.911 695.207,328.744 699.5,330C 700.711,328.887 700.711,327.72 699.5,326.5C 698.609,325.41 697.609,325.41 696.5,326.5C 696.002,325.397 695.669,324.397 695.5,323.5C 694.369,324.751 693.036,325.751 691.5,326.5C 690.833,326.167 690.167,325.833 689.5,325.5C 692.595,321.206 691.595,319.873 686.5,321.5C 685.522,321.023 684.689,320.357 684,319.5C 683.395,321.481 682.395,321.815 681,320.5C 676.63,323.753 672.13,324.42 667.5,322.5C 669.664,320.568 671.998,320.234 674.5,321.5C 677.44,320.696 680.107,319.363 682.5,317.5C 683.086,317.709 683.586,318.043 684,318.5C 686.227,315.991 685.894,313.991 683,312.5C 681.238,312.944 681.405,313.444 683.5,314C 680.341,314.011 677.507,314.845 675,316.5C 674.597,312.759 672.764,311.759 669.5,313.5C 668.548,311.955 668.215,310.288 668.5,308.5 Z"/></g>
<g><path style="opacity:1" fill="#627faa" d="M 183.5,337.5 C 183.58,340.781 182.913,343.781 181.5,346.5C 181.42,343.219 182.087,340.219 183.5,337.5 Z"/></g>
<g><path style="opacity:1" fill="#060f22" d="M 533.5,352.5 C 534.832,427.001 534.832,501.668 533.5,576.5C 532.479,548.598 532.479,521.098 533.5,494C 532.622,469.394 532.122,444.894 532,420.5C 530.693,419.228 529.193,418.228 527.5,417.5C 528.5,415.833 529.833,414.5 531.5,413.5C 531.833,411.333 532.167,409.167 532.5,407C 531.707,393.361 531.374,379.694 531.5,366C 532.329,361.558 532.996,357.058 533.5,352.5 Z"/></g>
<g><path style="opacity:1" fill="#5196ee" d="M 492.5,388.5 C 492.792,377.799 487.792,371.133 477.5,368.5C 475.833,368.5 474.167,368.5 472.5,368.5C 472.5,367.5 472.5,366.5 472.5,365.5C 485.969,365.03 492.636,358.03 492.5,344.5C 493.5,344.5 494.5,344.5 495.5,344.5C 495.374,357.376 501.707,364.709 514.5,366.5C 502.658,368.647 496.158,375.647 495,387.5C 494.329,388.252 493.496,388.586 492.5,388.5 Z"/></g>
<g><path style="opacity:1" fill="#314863" d="M 237.5,367.5 C 250.661,365.834 256.828,371.501 256,384.5C 252.351,392.505 246.184,395.339 237.5,393C 230.915,388.532 228.748,382.365 231,374.5C 232.694,371.642 234.861,369.309 237.5,367.5 Z"/></g>
<g><path style="opacity:1" fill="#283c55" d="M 298.5,367.5 C 313.088,366.907 318.588,373.574 315,387.5C 310.914,393.225 305.414,395.059 298.5,393C 290.963,388.968 288.463,382.802 291,374.5C 293.396,371.933 295.896,369.6 298.5,367.5 Z"/></g>
<g><path style="opacity:1" fill="#283d55" d="M 419.5,367.5 C 433.937,366.099 439.77,372.432 437,386.5C 433.677,392.908 428.511,395.075 421.5,393C 416.36,391.86 413.193,388.694 412,383.5C 411.146,376.54 413.646,371.207 419.5,367.5 Z"/></g>
<g><path style="opacity:1" fill="#a0c4e8" d="M 506.5,299.5 C 526.873,306.882 539.373,321.216 544,342.5C 544.667,423.833 544.667,505.167 544,586.5C 543.267,591.771 541.767,596.771 539.5,601.5C 538.453,600.112 537.12,599.279 535.5,599C 534.873,596.589 534.873,594.089 535.5,591.5C 536.65,508.181 536.817,424.848 536,341.5C 531.128,324.133 520.295,312.467 503.5,306.5C 502.737,305.732 501.737,305.232 500.5,305C 501.76,303.887 502.927,303.72 504,304.5C 503.981,302.893 503.815,301.226 503.5,299.5C 504.5,299.5 505.5,299.5 506.5,299.5 Z"/></g>
<g><path style="opacity:1" fill="#253952" d="M 358.5,367.5 C 373.492,366.319 379.326,372.986 376,387.5C 371.382,393.053 365.549,394.886 358.5,393C 351.39,388.561 349.223,382.394 352,374.5C 353.694,371.642 355.861,369.309 358.5,367.5 Z"/></g>
<g><path style="opacity:1" fill="#96b7d7" d="M 615.5,380.5 C 654.33,379.501 693.33,379.168 732.5,379.5C 732.828,390.346 732.494,401.013 731.5,411.5C 731.5,401.167 731.5,390.833 731.5,380.5C 694.5,380.5 657.5,380.5 620.5,380.5C 618.833,380.5 617.167,380.5 615.5,380.5 Z"/></g>
<g><path style="opacity:1" fill="#23364f" d="M 477.5,368.5 C 487.792,371.133 492.792,377.799 492.5,388.5C 491.404,390.103 490.07,391.603 488.5,393C 489.416,393.278 490.082,393.778 490.5,394.5C 489.833,394.5 489.167,394.5 488.5,394.5C 488.167,394.5 487.833,394.5 487.5,394.5C 484.939,393.233 482.272,393.233 479.5,394.5C 477.873,392.37 476.04,390.37 474,388.5C 472.455,383.953 472.121,379.287 473,374.5C 475.127,372.886 476.627,370.886 477.5,368.5 Z"/></g>
<g><path style="opacity:1" fill="#9ec7f9" d="M 667.5,410.5 C 661.099,409.816 654.599,409.15 648,408.5C 647,408.833 646,409.167 645,409.5C 644.513,412.637 643.346,415.47 641.5,418C 641.594,420.954 642.094,421.121 643,418.5C 643.333,429.833 643.667,441.167 644,452.5C 644.414,452.957 644.914,453.291 645.5,453.5C 646.314,451.234 646.814,448.9 647,446.5C 646.97,449.361 647.803,451.695 649.5,453.5C 649.918,454.222 650.584,454.722 651.5,455C 672.167,455.333 692.833,455.667 713.5,456C 713.167,456.333 712.833,456.667 712.5,457C 713.448,457.483 714.448,457.649 715.5,457.5C 715.169,465.528 715.502,473.528 716.5,481.5C 717.298,479.922 717.798,478.256 718,476.5C 718.497,479.146 718.664,481.813 718.5,484.5C 714.833,484.5 711.167,484.5 707.5,484.5C 702.852,483.546 698.019,482.88 693,482.5C 680.659,483.13 668.159,483.297 655.5,483C 653.167,482.667 650.833,482.333 648.5,482C 650.595,481.444 650.762,480.944 649,480.5C 645.931,481.294 644.264,483.294 644,486.5C 643.333,500.5 643.333,514.5 644,528.5C 644.414,528.957 644.914,529.291 645.5,529.5C 646.638,522.927 647.472,522.927 648,529.5C 648.169,514.661 648.669,499.994 649.5,485.5C 649.5,500.167 649.5,514.833 649.5,529.5C 649.5,529.833 649.5,530.167 649.5,530.5C 649.484,532.484 650.484,533.484 652.5,533.5C 670.309,532.693 687.809,532.36 705,532.5C 712.887,534.236 720.72,534.403 728.5,533C 729.252,532.329 729.586,531.496 729.5,530.5C 731.475,540.446 732.142,550.779 731.5,561.5C 730.5,561.5 729.5,561.5 728.5,561.5C 726.398,559.387 723.898,559.054 721,560.5C 718.499,560.416 716.166,559.75 714,558.5C 712.189,559.078 710.355,559.578 708.5,560C 679.788,560.309 651.121,560.476 622.5,560.5C 622.217,559.711 621.717,559.044 621,558.5C 620.5,499.834 620.333,441.168 620.5,382.5C 624.535,382.607 628.535,382.274 632.5,381.5C 659.15,382.307 685.817,382.807 712.5,383C 714.891,383.287 717.224,383.787 719.5,384.5C 722.701,383.077 726.034,382.077 729.5,381.5C 731.049,390.49 731.049,395.157 729.5,395.5C 725.668,395.19 724.168,396.857 725,400.5C 725.333,400.167 725.667,399.833 726,399.5C 726.5,400.667 727.333,401.5 728.5,402C 728,402.5 727.5,403 727,403.5C 725.887,402.289 724.72,402.289 723.5,403.5C 722.41,404.391 722.41,405.391 723.5,406.5C 723.023,407.478 722.357,408.311 721.5,409C 703.457,409.193 685.457,409.693 667.5,410.5 Z"/></g>
<g><path style="opacity:1" fill="#4791e8" d="M 1421.5,447.5 C 1419.36,445.235 1417.69,442.568 1416.5,439.5C 1415.31,438.571 1413.98,438.238 1412.5,438.5C 1412.33,436.508 1413,434.842 1414.5,433.5C 1412.39,431.415 1410.39,429.248 1408.5,427C 1409.63,425.532 1410.29,423.865 1410.5,422C 1410.25,420.674 1409.58,419.674 1408.5,419C 1409.45,418.282 1409.62,417.449 1409,416.5C 1407.3,414.734 1405.97,412.734 1405,410.5C 1404.68,412.301 1404.02,412.634 1403,411.5C 1402.55,408.863 1403.05,406.363 1404.5,404C 1404.17,403.167 1403.83,402.333 1403.5,401.5C 1401.96,402.747 1400.46,402.747 1399,401.5C 1398.32,399.062 1398.82,396.895 1400.5,395C 1398.91,393.711 1397.58,392.211 1396.5,390.5C 1398.63,383.313 1396.29,380.646 1389.5,382.5C 1385.32,381.938 1381.15,381.272 1377,380.5C 1371.96,381.824 1366.8,382.824 1361.5,383.5C 1359.38,382.429 1358.38,383.263 1358.5,386C 1359.45,388.235 1359.45,390.402 1358.5,392.5C 1356.76,390.326 1355.76,390.993 1355.5,394.5C 1356.33,396.473 1356.5,398.473 1356,400.5C 1355.15,401.424 1354.15,401.424 1353,400.5C 1351.99,401.056 1351.16,401.722 1350.5,402.5C 1352.63,394.773 1354.96,387.106 1357.5,379.5C 1371.08,379.177 1384.58,379.51 1398,380.5C 1405.55,402.981 1413.38,425.314 1421.5,447.5 Z"/></g>
<g><path style="opacity:1" fill="#9bc5f6" d="M 931.5,429.5 C 931.833,429.5 932.167,429.5 932.5,429.5C 943.679,429.172 954.679,429.505 965.5,430.5C 954.495,430.333 943.495,430.5 932.5,431C 942.828,431.5 953.161,431.666 963.5,431.5C 963.5,440.167 963.5,448.833 963.5,457.5C 953.161,457.334 942.828,457.5 932.5,458C 943.495,458.5 954.495,458.667 965.5,458.5C 954.679,459.495 943.679,459.828 932.5,459.5C 932.333,481.836 932.5,504.169 933,526.5C 934.083,530.418 936.583,532.752 940.5,533.5C 948.316,534.492 956.316,534.826 964.5,534.5C 964.5,543.5 964.5,552.5 964.5,561.5C 951.167,561.5 937.833,561.5 924.5,561.5C 922.102,561.741 920.102,561.074 918.5,559.5C 917.402,558.603 917.402,557.77 918.5,557C 917.062,556.781 915.729,556.281 914.5,555.5C 915.641,554.575 915.641,553.741 914.5,553C 910.755,553.035 910.088,552.035 912.5,550C 910.744,549.798 909.078,549.298 907.5,548.5C 906.387,545.557 905.054,542.723 903.5,540C 904.713,538.37 905.546,536.536 906,534.5C 906.92,534.07 907.753,533.736 908.5,533.5C 907.273,532.41 906.44,531.076 906,529.5C 905.5,506.169 905.333,482.836 905.5,459.5C 903.833,459.5 902.167,459.5 900.5,459.5C 900.5,484.167 900.5,508.833 900.5,533.5C 899.502,509.006 899.169,484.339 899.5,459.5C 891.06,457.855 883.06,456.522 875.5,455.5C 874.789,447.693 874.456,439.693 874.5,431.5C 882.174,431.666 889.841,431.5 897.5,431C 898.328,430.085 899.328,429.419 900.5,429C 899.552,428.517 898.552,428.351 897.5,428.5C 898.942,427.18 899.608,425.514 899.5,423.5C 900.473,421.052 900.806,418.385 900.5,415.5C 901.165,413.302 901.832,410.969 902.5,408.5C 903.425,409.641 904.259,409.641 905,408.5C 905.384,403.465 905.551,398.632 905.5,394C 905.167,393.833 904.833,393.667 904.5,393.5C 903.749,394.376 903.249,395.376 903,396.5C 902.506,394.866 902.34,393.199 902.5,391.5C 911.833,391.5 921.167,391.5 930.5,391.5C 930.168,404.914 930.501,417.581 931.5,429.5 Z"/></g>
<g><path style="opacity:1" fill="#a7cff6" d="M 931.5,429.5 C 930.501,417.581 930.168,404.914 930.5,391.5C 921.167,391.5 911.833,391.5 902.5,391.5C 902.34,393.199 902.506,394.866 903,396.5C 903.249,395.376 903.749,394.376 904.5,393.5C 904.833,393.667 905.167,393.833 905.5,394C 905.551,398.632 905.384,403.465 905,408.5C 904.259,409.641 903.425,409.641 902.5,408.5C 901.832,410.969 901.165,413.302 900.5,415.5C 900.5,407.167 900.5,398.833 900.5,390.5C 910.833,390.5 921.167,390.5 931.5,390.5C 931.5,403.5 931.5,416.5 931.5,429.5 Z"/></g>
<g><path style="opacity:1" fill="#5f7da4" d="M 932.5,429.5 C 932.167,429.5 931.833,429.5 931.5,429.5C 931.5,416.5 931.5,403.5 931.5,390.5C 921.167,390.5 910.833,390.5 900.5,390.5C 900.5,398.833 900.5,407.167 900.5,415.5C 900.806,418.385 900.473,421.052 899.5,423.5C 899.5,412.167 899.5,400.833 899.5,389.5C 910.5,389.5 921.5,389.5 932.5,389.5C 932.5,402.833 932.5,416.167 932.5,429.5 Z"/></g>
<g><path style="opacity:1" fill="#4595f7" d="M 1421.5,447.5 C 1435.15,485.461 1448.82,523.461 1462.5,561.5C 1462.38,562.107 1462.04,562.44 1461.5,562.5C 1451.17,562.5 1440.83,562.5 1430.5,562.5C 1414.76,518.943 1399.43,475.277 1384.5,431.5C 1382.78,424.616 1380.45,417.949 1377.5,411.5C 1376.2,415.757 1374.53,419.757 1372.5,423.5C 1371.25,423.577 1370.42,424.244 1370,425.5C 1369,424.167 1368,424.167 1367,425.5C 1366.5,428.022 1366.67,430.522 1367.5,433C 1367.3,436.286 1366.47,436.786 1365,434.5C 1363.56,435.93 1363.23,437.597 1364,439.5C 1364.89,438.112 1365.39,438.278 1365.5,440C 1364.39,442.047 1363.72,444.213 1363.5,446.5C 1362.18,446.67 1361.01,446.337 1360,445.5C 1360.16,448.179 1360.66,450.846 1361.5,453.5C 1359.32,453.284 1357.65,454.117 1356.5,456C 1357.04,458.107 1358.04,460.274 1359.5,462.5C 1356.98,469.397 1354.65,476.397 1352.5,483.5C 1351.13,485.936 1350.13,488.603 1349.5,491.5C 1346.69,500.603 1343.69,509.603 1340.5,518.5C 1338.27,522.522 1336.6,526.856 1335.5,531.5C 1334.43,533.701 1333.77,536.035 1333.5,538.5C 1330.17,546.5 1326.83,554.5 1323.5,562.5C 1318.25,561.764 1312.92,560.764 1307.5,559.5C 1305.31,559.136 1303.47,558.136 1302,556.5C 1301.67,556.833 1301.33,557.167 1301,557.5C 1300.67,556.5 1300.33,555.5 1300,554.5C 1298.87,555.604 1298.04,555.271 1297.5,553.5C 1298.64,552.575 1298.64,551.741 1297.5,551C 1298.45,550.517 1299.45,550.351 1300.5,550.5C 1300.14,548.234 1300.81,546.401 1302.5,545C 1301.86,541.865 1302.53,538.865 1304.5,536C 1304.17,535.667 1303.83,535.333 1303.5,535C 1304.5,534.167 1305.5,533.333 1306.5,532.5C 1305.95,530.997 1305.95,529.331 1306.5,527.5C 1307.83,527.5 1309.17,527.5 1310.5,527.5C 1310.82,525.278 1310.16,523.444 1308.5,522C 1310.26,517.98 1311.59,513.814 1312.5,509.5C 1313.68,509.719 1314.68,509.386 1315.5,508.5C 1314.61,505.916 1314.27,503.249 1314.5,500.5C 1325.55,467.33 1337.55,434.663 1350.5,402.5C 1351.16,401.722 1351.99,401.056 1353,400.5C 1354.15,401.424 1355.15,401.424 1356,400.5C 1356.5,398.473 1356.33,396.473 1355.5,394.5C 1355.76,390.993 1356.76,390.326 1358.5,392.5C 1359.45,390.402 1359.45,388.235 1358.5,386C 1358.38,383.263 1359.38,382.429 1361.5,383.5C 1366.8,382.824 1371.96,381.824 1377,380.5C 1381.15,381.272 1385.32,381.938 1389.5,382.5C 1396.29,380.646 1398.63,383.313 1396.5,390.5C 1397.58,392.211 1398.91,393.711 1400.5,395C 1398.82,396.895 1398.32,399.062 1399,401.5C 1400.46,402.747 1401.96,402.747 1403.5,401.5C 1403.83,402.333 1404.17,403.167 1404.5,404C 1403.05,406.363 1402.55,408.863 1403,411.5C 1404.02,412.634 1404.68,412.301 1405,410.5C 1405.97,412.734 1407.3,414.734 1409,416.5C 1409.62,417.449 1409.45,418.282 1408.5,419C 1409.58,419.674 1410.25,420.674 1410.5,422C 1410.29,423.865 1409.63,425.532 1408.5,427C 1410.39,429.248 1412.39,431.415 1414.5,433.5C 1413,434.842 1412.33,436.508 1412.5,438.5C 1413.98,438.238 1415.31,438.571 1416.5,439.5C 1417.69,442.568 1419.36,445.235 1421.5,447.5 Z"/></g>
<g><path style="opacity:1" fill="#587598" d="M 1237.5,379.5 C 1237.5,402.833 1237.5,426.167 1237.5,449.5C 1236.51,449.672 1235.84,449.338 1235.5,448.5C 1236.17,425.5 1236.83,402.5 1237.5,379.5 Z"/></g>
<g><path style="opacity:1" fill="#9bc2ea" d="M 667.5,410.5 C 661.31,410.177 655.31,410.51 649.5,411.5C 649.5,425.5 649.5,439.5 649.5,453.5C 647.803,451.695 646.97,449.361 647,446.5C 646.814,448.9 646.314,451.234 645.5,453.5C 644.914,453.291 644.414,452.957 644,452.5C 643.667,441.167 643.333,429.833 643,418.5C 642.094,421.121 641.594,420.954 641.5,418C 643.346,415.47 644.513,412.637 645,409.5C 646,409.167 647,408.833 648,408.5C 654.599,409.15 661.099,409.816 667.5,410.5 Z"/></g>
<g><path style="opacity:1" fill="#091527" d="M 1384.5,431.5 C 1383.03,430.653 1382.2,429.32 1382,427.5C 1381.78,428.938 1381.28,430.271 1380.5,431.5C 1377.03,433.297 1375.7,435.963 1376.5,439.5C 1372.47,441.528 1369.47,444.528 1367.5,448.5C 1366.68,449.386 1365.68,449.719 1364.5,449.5C 1366.98,440.718 1369.65,432.051 1372.5,423.5C 1374.53,419.757 1376.2,415.757 1377.5,411.5C 1380.45,417.949 1382.78,424.616 1384.5,431.5 Z"/></g>
<g><path style="opacity:1" fill="#283c55" d="M 299.5,428.5 C 312.712,428.209 318.212,434.542 316,447.5C 312.024,454.236 306.191,456.736 298.5,455C 290.068,449.642 288.235,442.476 293,433.5C 294.965,431.45 297.132,429.783 299.5,428.5 Z"/></g>
<g><path style="opacity:1" fill="#273c54" d="M 359.5,428.5 C 373.771,428.072 379.271,434.739 376,448.5C 374.833,451 373,452.833 370.5,454C 361.207,457.604 354.707,454.77 351,445.5C 350.333,442.833 350.333,440.167 351,437.5C 353.362,433.973 356.196,430.973 359.5,428.5 Z"/></g>
<g><path style="opacity:1" fill="#283c54" d="M 421.5,428.5 C 434.887,429.034 440.053,435.7 437,448.5C 432.296,455.095 426.13,456.928 418.5,454C 412.945,449.422 411.112,443.588 413,436.5C 415.074,432.923 417.907,430.256 421.5,428.5 Z"/></g>
<g><path style="opacity:1" fill="#2b425c" d="M 238.5,428.5 C 252.744,428.228 258.244,434.894 255,448.5C 251.155,454.667 245.655,456.834 238.5,455C 230.963,450.968 228.463,444.802 231,436.5C 233.028,433.308 235.528,430.641 238.5,428.5 Z"/></g>
<g><path style="opacity:1" fill="#253b52" d="M 479.5,429.5 C 493.821,427.322 499.987,433.322 498,447.5C 492.818,455.449 485.985,457.282 477.5,453C 472.789,448.86 471.289,443.694 473,437.5C 474.305,434.039 476.471,431.372 479.5,429.5 Z"/></g>
<g><path style="opacity:1" fill="#4994eb" d="M 1372.5,423.5 C 1369.65,432.051 1366.98,440.718 1364.5,449.5C 1363.01,453.982 1361.34,458.316 1359.5,462.5C 1358.04,460.274 1357.04,458.107 1356.5,456C 1357.65,454.117 1359.32,453.284 1361.5,453.5C 1360.66,450.846 1360.16,448.179 1360,445.5C 1361.01,446.337 1362.18,446.67 1363.5,446.5C 1363.72,444.213 1364.39,442.047 1365.5,440C 1365.39,438.278 1364.89,438.112 1364,439.5C 1363.23,437.597 1363.56,435.93 1365,434.5C 1366.47,436.786 1367.3,436.286 1367.5,433C 1366.67,430.522 1366.5,428.022 1367,425.5C 1368,424.167 1369,424.167 1370,425.5C 1370.42,424.244 1371.25,423.577 1372.5,423.5 Z"/></g>
<g><path style="opacity:1" fill="#a3cbf4" d="M 1237.5,379.5 C 1247.83,379.5 1258.17,379.5 1268.5,379.5C 1268.5,440.167 1268.5,500.833 1268.5,561.5C 1259.17,561.5 1249.83,561.5 1240.5,561.5C 1242.19,560.897 1243.69,559.897 1245,558.5C 1250.43,560.349 1255.93,561.016 1261.5,560.5C 1264.07,560.101 1265.4,558.601 1265.5,556C 1264.73,553.931 1263.4,552.265 1261.5,551C 1264.42,548.179 1265.75,544.679 1265.5,540.5C 1265.38,537.629 1264.72,534.962 1263.5,532.5C 1264.69,530.79 1264.35,529.29 1262.5,528C 1266.15,521.483 1266.48,514.817 1263.5,508C 1266.14,499.178 1266.14,490.344 1263.5,481.5C 1263.58,479.701 1264.08,478.034 1265,476.5C 1265.67,465.167 1265.67,453.833 1265,442.5C 1263.34,440.854 1262.51,438.854 1262.5,436.5C 1264.24,432.373 1265.24,428.04 1265.5,423.5C 1265.29,420.377 1264.63,417.377 1263.5,414.5C 1264.72,409.614 1265.39,404.614 1265.5,399.5C 1265.34,394.037 1264.67,388.703 1263.5,383.5C 1259.13,382.659 1254.8,381.659 1250.5,380.5C 1248.17,381.167 1245.83,381.833 1243.5,382.5C 1242.33,395.821 1242.17,409.154 1243,422.5C 1243.5,423 1244,423.5 1244.5,424C 1242.95,427.098 1242.29,430.431 1242.5,434C 1244.42,439.28 1245.09,444.447 1244.5,449.5C 1242.57,451.102 1240.41,452.435 1238,453.5C 1236.79,452.929 1235.63,452.262 1234.5,451.5C 1234.94,450.494 1235.6,450.494 1236.5,451.5C 1237.3,451.043 1237.63,450.376 1237.5,449.5C 1237.5,426.167 1237.5,402.833 1237.5,379.5 Z"/></g>
<g><path style="opacity:1" fill="#b0dbf9" d="M 1020.5,430.5 C 1020.5,430.833 1020.5,431.167 1020.5,431.5C 1010.17,431.5 999.833,431.5 989.5,431.5C 989.831,460.338 989.498,489.005 988.5,517.5C 988.5,488.5 988.5,459.5 988.5,430.5C 999.167,430.5 1009.83,430.5 1020.5,430.5 Z"/></g>
<g><path style="opacity:1" fill="#80a6d1" d="M 1268.5,379.5 C 1269.5,440.331 1269.83,501.331 1269.5,562.5C 1258.83,562.5 1248.17,562.5 1237.5,562.5C 1237.82,556.31 1237.49,550.31 1236.5,544.5C 1236.56,543.957 1236.89,543.624 1237.5,543.5C 1237.86,549.889 1238.86,555.889 1240.5,561.5C 1249.83,561.5 1259.17,561.5 1268.5,561.5C 1268.5,500.833 1268.5,440.167 1268.5,379.5 Z"/></g>
<g><path style="opacity:1" fill="#455f82" d="M 1020.5,430.5 C 1009.83,430.5 999.167,430.5 988.5,430.5C 988.5,459.5 988.5,488.5 988.5,517.5C 987.502,488.338 987.169,459.005 987.5,429.5C 998.679,429.172 1009.68,429.505 1020.5,430.5 Z"/></g>
<g><path style="opacity:1" fill="#99c3ec" d="M 1172.5,430.5 C 1171.05,431.825 1171.38,432.658 1173.5,433C 1169.77,435.246 1165.77,436.913 1161.5,438C 1159.61,439.079 1159.27,440.413 1160.5,442C 1157.67,442.167 1156.17,443.667 1156,446.5C 1154.82,445.269 1153.65,445.269 1152.5,446.5C 1151.52,447.981 1150.35,449.315 1149,450.5C 1148.51,451.549 1148.67,452.549 1149.5,453.5C 1148.73,454.711 1147.89,454.711 1147,453.5C 1146.63,454.416 1146.13,455.25 1145.5,456C 1146.43,456.388 1147.09,457.055 1147.5,458C 1146.43,459.416 1146.43,460.75 1147.5,462C 1144.85,464.54 1142.18,467.706 1139.5,471.5C 1141.01,474.737 1140.68,477.737 1138.5,480.5C 1137.81,479.975 1137.31,479.308 1137,478.5C 1136.77,479.737 1136.27,480.737 1135.5,481.5C 1135.7,478.482 1136.04,475.482 1136.5,472.5C 1141.68,452.655 1153.68,438.655 1172.5,430.5 Z"/></g>
<g><path style="opacity:1" fill="#a0c8f2" d="M 620.5,380.5 C 657.5,380.5 694.5,380.5 731.5,380.5C 731.5,390.833 731.5,401.167 731.5,411.5C 704.167,411.5 676.833,411.5 649.5,411.5C 655.31,410.51 661.31,410.177 667.5,410.5C 685.457,409.693 703.457,409.193 721.5,409C 722.357,408.311 723.023,407.478 723.5,406.5C 722.41,405.391 722.41,404.391 723.5,403.5C 724.72,402.289 725.887,402.289 727,403.5C 727.5,403 728,402.5 728.5,402C 727.333,401.5 726.5,400.667 726,399.5C 725.667,399.833 725.333,400.167 725,400.5C 724.168,396.857 725.668,395.19 729.5,395.5C 731.049,395.157 731.049,390.49 729.5,381.5C 726.034,382.077 722.701,383.077 719.5,384.5C 717.224,383.787 714.891,383.287 712.5,383C 685.817,382.807 659.15,382.307 632.5,381.5C 628.535,382.274 624.535,382.607 620.5,382.5C 620.333,441.168 620.5,499.834 621,558.5C 621.717,559.044 622.217,559.711 622.5,560.5C 620.5,560.5 618.5,560.5 616.5,560.5C 616.5,500.833 616.5,441.167 616.5,381.5C 618.099,381.768 619.432,381.434 620.5,380.5 Z"/></g>
<g><path style="opacity:1" fill="#8cb2d8" d="M 897.5,428.5 C 898.552,428.351 899.552,428.517 900.5,429C 899.328,429.419 898.328,430.085 897.5,431C 889.841,431.5 882.174,431.666 874.5,431.5C 874.456,439.693 874.789,447.693 875.5,455.5C 883.06,456.522 891.06,457.855 899.5,459.5C 894.5,459.5 889.5,459.5 884.5,459.5C 880.5,459.5 876.5,459.5 872.5,459.5C 872.5,449.833 872.5,440.167 872.5,430.5C 880.833,429.833 889.167,429.167 897.5,428.5 Z"/></g>
<g><path style="opacity:1" fill="#3177c5" d="M 1512.5,379.5 C 1512.5,379.833 1512.5,380.167 1512.5,380.5C 1506.17,380.5 1499.83,380.5 1493.5,380.5C 1490.5,380.5 1487.5,380.5 1484.5,380.5C 1484.5,440.833 1484.5,501.167 1484.5,561.5C 1494.17,561.5 1503.83,561.5 1513.5,561.5C 1513.5,500.833 1513.5,440.167 1513.5,379.5C 1514.5,396.325 1514.83,413.325 1514.5,430.5C 1514.5,472.833 1514.5,515.167 1514.5,557.5C 1514.5,559.167 1514.5,560.833 1514.5,562.5C 1513.17,562.5 1511.83,562.5 1510.5,562.5C 1501.5,562.5 1492.5,562.5 1483.5,562.5C 1483.5,511.833 1483.5,461.167 1483.5,410.5C 1483.5,400.167 1483.5,389.833 1483.5,379.5C 1493.17,379.5 1502.83,379.5 1512.5,379.5 Z"/></g>
<g><path style="opacity:1" fill="#459ff9" d="M 1512.5,379.5 C 1512.83,379.5 1513.17,379.5 1513.5,379.5C 1513.5,440.167 1513.5,500.833 1513.5,561.5C 1503.83,561.5 1494.17,561.5 1484.5,561.5C 1484.5,501.167 1484.5,440.833 1484.5,380.5C 1487.5,380.5 1490.5,380.5 1493.5,380.5C 1493.39,381.117 1493.06,381.617 1492.5,382C 1490.14,382.208 1487.97,382.374 1486,382.5C 1485.5,440.832 1485.33,499.166 1485.5,557.5C 1487.75,558.333 1489.92,558.333 1492,557.5C 1498.14,560.921 1504.47,561.255 1511,558.5C 1511.33,558.833 1511.67,559.167 1512,559.5C 1512.5,499.834 1512.67,440.168 1512.5,380.5C 1512.5,380.167 1512.5,379.833 1512.5,379.5 Z"/></g>
<g><path style="opacity:1" fill="#4495f9" d="M 1493.5,380.5 C 1499.83,380.5 1506.17,380.5 1512.5,380.5C 1512.67,440.168 1512.5,499.834 1512,559.5C 1511.67,559.167 1511.33,558.833 1511,558.5C 1504.47,561.255 1498.14,560.921 1492,557.5C 1489.92,558.333 1487.75,558.333 1485.5,557.5C 1485.33,499.166 1485.5,440.832 1486,382.5C 1487.97,382.374 1490.14,382.208 1492.5,382C 1493.06,381.617 1493.39,381.117 1493.5,380.5 Z"/></g>
<g><path style="opacity:1" fill="#051330" d="M 1483.5,410.5 C 1483.5,461.167 1483.5,511.833 1483.5,562.5C 1492.5,562.5 1501.5,562.5 1510.5,562.5C 1508.26,563.861 1505.76,564.861 1503,565.5C 1496.89,562.911 1490.89,562.911 1485,565.5C 1479.56,564.311 1478.39,561.644 1481.5,557.5C 1482.17,508.335 1482.83,459.335 1483.5,410.5 Z"/></g>
<g><path style="opacity:1" fill="#98bde5" d="M 649.5,453.5 C 673.167,453.5 696.833,453.5 720.5,453.5C 720.5,464.167 720.5,474.833 720.5,485.5C 696.833,485.5 673.167,485.5 649.5,485.5C 668.659,484.503 687.993,484.17 707.5,484.5C 711.167,484.5 714.833,484.5 718.5,484.5C 718.664,481.813 718.497,479.146 718,476.5C 717.798,478.256 717.298,479.922 716.5,481.5C 715.502,473.528 715.169,465.528 715.5,457.5C 714.448,457.649 713.448,457.483 712.5,457C 712.833,456.667 713.167,456.333 713.5,456C 692.833,455.667 672.167,455.333 651.5,455C 650.584,454.722 649.918,454.222 649.5,453.5 Z"/></g>
<g><path style="opacity:1" fill="#a6d1f2" d="M 965.5,430.5 C 965.5,439.833 965.5,449.167 965.5,458.5C 954.495,458.667 943.495,458.5 932.5,458C 942.828,457.5 953.161,457.334 963.5,457.5C 963.5,448.833 963.5,440.167 963.5,431.5C 953.161,431.666 942.828,431.5 932.5,431C 943.495,430.5 954.495,430.333 965.5,430.5 Z"/></g>
<g><path style="opacity:1" fill="#061326" d="M 872.5,430.5 C 872.5,440.167 872.5,449.833 872.5,459.5C 876.5,459.5 880.5,459.5 884.5,459.5C 883.829,460.847 883.829,462.014 884.5,463C 881.11,463.246 877.777,463.746 874.5,464.5C 873.284,463.998 872.117,463.665 871,463.5C 868.305,465.694 865.472,467.694 862.5,469.5C 861.264,467.966 860.764,466.3 861,464.5C 863.266,463.044 865.766,462.21 868.5,462C 869.701,461.097 870.535,459.931 871,458.5C 871.667,455.167 871.667,451.833 871,448.5C 870.683,450.301 870.016,450.634 869,449.5C 866.037,451.364 863.203,453.364 860.5,455.5C 859.571,456.689 859.238,458.022 859.5,459.5C 856.779,454.403 853.779,449.403 850.5,444.5C 853.118,444.221 855.618,443.554 858,442.5C 860.179,443.116 862.012,444.283 863.5,446C 865.473,446.495 867.473,446.662 869.5,446.5C 870.937,441.201 871.937,435.867 872.5,430.5 Z"/></g>
<g><path style="opacity:1" fill="#b1dbfa" d="M 1110.5,430.5 C 1110.83,474.337 1110.5,518.003 1109.5,561.5C 1109.5,518.167 1109.5,474.833 1109.5,431.5C 1101.83,431.5 1094.17,431.5 1086.5,431.5C 1083.79,431.185 1081.46,431.852 1079.5,433.5C 1079.5,432.5 1079.5,431.5 1079.5,430.5C 1089.83,430.5 1100.17,430.5 1110.5,430.5 Z"/></g>
<g><path style="opacity:1" fill="#050d1e" d="M 1514.5,557.5 C 1514.5,515.167 1514.5,472.833 1514.5,430.5C 1516.22,428.342 1517.05,425.675 1517,422.5C 1517.45,426.478 1517.95,430.145 1518.5,433.5C 1520.9,432.992 1521.57,431.825 1520.5,430C 1523.03,428.684 1523.03,427.517 1520.5,426.5C 1521.96,425.255 1523.29,425.422 1524.5,427C 1523.83,428.667 1523.17,430.333 1522.5,432C 1523.17,432.333 1523.83,432.667 1524.5,433C 1523.38,433.249 1522.38,433.749 1521.5,434.5C 1521.67,434.833 1521.83,435.167 1522,435.5C 1523.4,434.773 1524.9,434.273 1526.5,434C 1525.32,429.1 1524.82,424.267 1525,419.5C 1524.09,420.328 1523.42,421.328 1523,422.5C 1520.27,421.638 1520.1,420.805 1522.5,420C 1521.02,417.961 1519.02,417.128 1516.5,417.5C 1516.33,410.159 1516.5,402.826 1517,395.5C 1518.51,396.09 1520.01,396.756 1521.5,397.5C 1520.37,398.262 1519.21,398.929 1518,399.5C 1517.17,404.202 1517.34,408.869 1518.5,413.5C 1519.55,412.115 1520.88,411.115 1522.5,410.5C 1524.6,411.62 1524.93,413.12 1523.5,415C 1525.19,416.347 1526.86,416.847 1528.5,416.5C 1527.68,420.93 1527.35,425.263 1527.5,429.5C 1528.5,433.353 1529.34,433.353 1530,429.5C 1530.67,431.167 1530.67,432.833 1530,434.5C 1529.33,433.167 1528.67,433.167 1528,434.5C 1527.51,436.134 1527.34,437.801 1527.5,439.5C 1529.36,439.461 1530.69,440.294 1531.5,442C 1529.17,444 1526.83,444 1524.5,442C 1524.96,441.586 1525.29,441.086 1525.5,440.5C 1524.31,439.571 1522.98,439.238 1521.5,439.5C 1521.11,443.139 1522.11,446.305 1524.5,449C 1523.69,450.314 1522.69,451.481 1521.5,452.5C 1523.04,453.532 1523.54,454.865 1523,456.5C 1521.56,454.845 1519.72,454.178 1517.5,454.5C 1517.5,455.833 1517.5,457.167 1517.5,458.5C 1520.17,458.5 1522.83,458.5 1525.5,458.5C 1525.87,453.672 1526.04,449.005 1526,444.5C 1527.33,444.5 1528.67,444.5 1530,444.5C 1527.83,447.667 1526.67,451.167 1526.5,455C 1527.03,455.692 1527.69,456.192 1528.5,456.5C 1529.53,454.96 1530.87,454.46 1532.5,455C 1531.83,456.333 1531.17,457.667 1530.5,459C 1532,459.507 1533.16,459.007 1534,457.5C 1534.5,458 1535,458.5 1535.5,459C 1535.5,461 1535.5,463 1535.5,465C 1534.43,469.069 1531.93,471.903 1528,473.5C 1527.78,474.938 1527.28,476.271 1526.5,477.5C 1526.09,476.738 1525.92,475.738 1526,474.5C 1524.64,475.38 1523.14,475.714 1521.5,475.5C 1521.99,478.997 1523.83,479.997 1527,478.5C 1528.52,485.826 1528.35,493.16 1526.5,500.5C 1531.5,499.938 1532.5,497.772 1529.5,494C 1530.74,492.13 1531.41,489.964 1531.5,487.5C 1530.17,482.827 1530.17,478.16 1531.5,473.5C 1532.98,473.238 1534.31,473.571 1535.5,474.5C 1535.76,484.143 1535.42,494.143 1534.5,504.5C 1532.08,504.192 1529.74,504.526 1527.5,505.5C 1528.65,506.731 1529.82,506.731 1531,505.5C 1531.06,507.883 1531.9,508.55 1533.5,507.5C 1534.21,510.027 1534.88,512.527 1535.5,515C 1534.17,519.891 1533.5,525.058 1533.5,530.5C 1532.28,529.289 1531.11,529.289 1530,530.5C 1525.88,526.19 1522.88,526.857 1521,532.5C 1519.99,531.663 1518.82,531.33 1517.5,531.5C 1517.33,537.842 1517.5,544.175 1518,550.5C 1518.97,552.305 1520.14,553.972 1521.5,555.5C 1519.32,557.478 1516.99,558.145 1514.5,557.5 Z"/></g>
<g><path style="opacity:1" fill="#6484a6" d="M 1136.5,472.5 C 1136.04,475.482 1135.7,478.482 1135.5,481.5C 1135.17,481.5 1134.83,481.5 1134.5,481.5C 1134.22,478.171 1134.88,475.171 1136.5,472.5 Z"/></g>
<g><path style="opacity:1" fill="#a2c9f3" d="M 918.5,559.5 C 907.593,554.388 901.593,545.721 900.5,533.5C 900.5,508.833 900.5,484.167 900.5,459.5C 902.167,459.5 903.833,459.5 905.5,459.5C 905.333,482.836 905.5,506.169 906,529.5C 906.44,531.076 907.273,532.41 908.5,533.5C 907.753,533.736 906.92,534.07 906,534.5C 905.546,536.536 904.713,538.37 903.5,540C 905.054,542.723 906.387,545.557 907.5,548.5C 909.078,549.298 910.744,549.798 912.5,550C 910.088,552.035 910.755,553.035 914.5,553C 915.641,553.741 915.641,554.575 914.5,555.5C 915.729,556.281 917.062,556.781 918.5,557C 917.402,557.77 917.402,558.603 918.5,559.5 Z"/></g>
<g><path style="opacity:1" fill="#9dc7f8" d="M 1240.5,561.5 C 1238.86,555.889 1237.86,549.889 1237.5,543.5C 1236.89,543.624 1236.56,543.957 1236.5,544.5C 1234.63,547.582 1232.29,550.249 1229.5,552.5C 1227.67,553.052 1226,553.052 1224.5,552.5C 1219.42,555.399 1214.42,557.566 1209.5,559C 1210.17,559.333 1210.83,559.667 1211.5,560C 1207.78,561.304 1203.95,562.137 1200,562.5C 1195.67,562.007 1191.51,561.84 1187.5,562C 1189.6,561.444 1189.76,560.944 1188,560.5C 1183.61,561.028 1179.28,560.361 1175,558.5C 1172.97,559.435 1171.14,558.935 1169.5,557C 1170.17,556.667 1170.83,556.333 1171.5,556C 1170.1,555.405 1168.77,555.572 1167.5,556.5C 1166.29,555.726 1166.29,554.893 1167.5,554C 1165.05,553.273 1162.71,552.273 1160.5,551C 1158.17,548 1155.83,545 1153.5,542C 1151.62,541.784 1149.95,541.117 1148.5,540C 1149.31,539.692 1149.97,539.192 1150.5,538.5C 1149.38,537.402 1149.38,536.235 1150.5,535C 1149.73,533.779 1148.73,532.779 1147.5,532C 1145.82,531.966 1144.32,531.799 1143,531.5C 1143.25,528.867 1143.25,526.2 1143,523.5C 1142.59,523.957 1142.09,524.291 1141.5,524.5C 1140.25,522.999 1139.25,521.332 1138.5,519.5C 1138.85,518.304 1139.35,518.304 1140,519.5C 1140.8,517.741 1140.63,516.074 1139.5,514.5C 1138.75,515.376 1138.25,516.376 1138,517.5C 1137.49,515.122 1136.82,512.788 1136,510.5C 1135.52,511.448 1135.35,512.448 1135.5,513.5C 1134.73,512.737 1134.23,511.737 1134,510.5C 1133.18,500.658 1133.34,490.991 1134.5,481.5C 1134.83,481.5 1135.17,481.5 1135.5,481.5C 1136.27,480.737 1136.77,479.737 1137,478.5C 1137.31,479.308 1137.81,479.975 1138.5,480.5C 1140.68,477.737 1141.01,474.737 1139.5,471.5C 1142.18,467.706 1144.85,464.54 1147.5,462C 1146.43,460.75 1146.43,459.416 1147.5,458C 1147.09,457.055 1146.43,456.388 1145.5,456C 1146.13,455.25 1146.63,454.416 1147,453.5C 1147.89,454.711 1148.73,454.711 1149.5,453.5C 1148.67,452.549 1148.51,451.549 1149,450.5C 1150.35,449.315 1151.52,447.981 1152.5,446.5C 1153.65,445.269 1154.82,445.269 1156,446.5C 1156.17,443.667 1157.67,442.167 1160.5,442C 1159.27,440.413 1159.61,439.079 1161.5,438C 1165.77,436.913 1169.77,435.246 1173.5,433C 1171.38,432.658 1171.05,431.825 1172.5,430.5C 1194.97,421.806 1214.81,425.806 1232,442.5C 1233.42,444.405 1234.59,446.405 1235.5,448.5C 1235.84,449.338 1236.51,449.672 1237.5,449.5C 1237.63,450.376 1237.3,451.043 1236.5,451.5C 1235.6,450.494 1234.94,450.494 1234.5,451.5C 1235.63,452.262 1236.79,452.929 1238,453.5C 1240.41,452.435 1242.57,451.102 1244.5,449.5C 1245.09,444.447 1244.42,439.28 1242.5,434C 1242.29,430.431 1242.95,427.098 1244.5,424C 1244,423.5 1243.5,423 1243,422.5C 1242.17,409.154 1242.33,395.821 1243.5,382.5C 1245.83,381.833 1248.17,381.167 1250.5,380.5C 1254.8,381.659 1259.13,382.659 1263.5,383.5C 1264.67,388.703 1265.34,394.037 1265.5,399.5C 1265.39,404.614 1264.72,409.614 1263.5,414.5C 1264.63,417.377 1265.29,420.377 1265.5,423.5C 1265.24,428.04 1264.24,432.373 1262.5,436.5C 1262.51,438.854 1263.34,440.854 1265,442.5C 1265.67,453.833 1265.67,465.167 1265,476.5C 1264.08,478.034 1263.58,479.701 1263.5,481.5C 1266.14,490.344 1266.14,499.178 1263.5,508C 1266.48,514.817 1266.15,521.483 1262.5,528C 1264.35,529.29 1264.69,530.79 1263.5,532.5C 1264.72,534.962 1265.38,537.629 1265.5,540.5C 1265.75,544.679 1264.42,548.179 1261.5,551C 1263.4,552.265 1264.73,553.931 1265.5,556C 1265.4,558.601 1264.07,560.101 1261.5,560.5C 1255.93,561.016 1250.43,560.349 1245,558.5C 1243.69,559.897 1242.19,560.897 1240.5,561.5 Z"/></g>
<g><path style="opacity:1" fill="#9bc3eb" d="M 1178.5,465.5 C 1164.87,482.121 1163.04,500.121 1173,519.5C 1177.12,525.637 1182.62,529.97 1189.5,532.5C 1191.05,533.895 1190.72,534.561 1188.5,534.5C 1186.04,533.436 1183.71,532.102 1181.5,530.5C 1180.23,532.85 1178.89,532.683 1177.5,530C 1178.65,527.147 1177.81,526.314 1175,527.5C 1173.29,526.863 1173.12,525.863 1174.5,524.5C 1173.27,523.719 1171.94,523.219 1170.5,523C 1171.52,521.951 1171.68,520.784 1171,519.5C 1169.17,520.184 1167.67,519.517 1166.5,517.5C 1167.38,516.749 1168.38,516.249 1169.5,516C 1168.54,514.581 1167.71,513.081 1167,511.5C 1166.59,511.957 1166.09,512.291 1165.5,512.5C 1164.74,511.372 1164.07,510.205 1163.5,509C 1164.94,507.874 1165.61,506.374 1165.5,504.5C 1164.2,498.997 1164.2,493.497 1165.5,488C 1165.29,486.135 1164.63,484.468 1163.5,483C 1164.2,481.107 1165.03,479.274 1166,477.5C 1167.16,478.993 1167.99,478.826 1168.5,477C 1167.85,475.56 1167.52,474.06 1167.5,472.5C 1168.87,472.657 1170.21,472.49 1171.5,472C 1170.48,470.951 1170.32,469.784 1171,468.5C 1171.74,467.359 1172.57,467.359 1173.5,468.5C 1173.94,467.302 1174.27,466.135 1174.5,465C 1176.07,464.235 1177.4,464.402 1178.5,465.5 Z"/></g>
<g><path style="opacity:1" fill="#071120" d="M 1189.5,532.5 C 1182.62,529.97 1177.12,525.637 1173,519.5C 1163.04,500.121 1164.87,482.121 1178.5,465.5C 1196.99,452.227 1214.16,453.894 1230,470.5C 1239.19,486.102 1239.85,502.102 1232,518.5C 1221.04,532.621 1206.87,537.288 1189.5,532.5 Z"/></g>
<g><path style="opacity:1" fill="#a3ccf5" d="M 707.5,484.5 C 687.993,484.17 668.659,484.503 649.5,485.5C 648.669,499.994 648.169,514.661 648,529.5C 647.472,522.927 646.638,522.927 645.5,529.5C 644.914,529.291 644.414,528.957 644,528.5C 643.333,514.5 643.333,500.5 644,486.5C 644.264,483.294 645.931,481.294 649,480.5C 650.762,480.944 650.595,481.444 648.5,482C 650.833,482.333 653.167,482.667 655.5,483C 668.159,483.297 680.659,483.13 693,482.5C 698.019,482.88 702.852,483.546 707.5,484.5 Z"/></g>
<g><path style="opacity:1" fill="#9ec8f8" d="M 1020.5,431.5 C 1020.06,459.866 1020.56,488.2 1022,516.5C 1028.98,532.736 1041.15,538.403 1058.5,533.5C 1061.22,534.227 1063.89,533.727 1066.5,532C 1067.45,530.045 1068.79,528.378 1070.5,527C 1072.85,527.792 1075.18,527.625 1077.5,526.5C 1078.24,523.762 1078.24,521.095 1077.5,518.5C 1079.43,518.203 1081.1,516.87 1082.5,514.5C 1081.51,513.335 1080.51,512.168 1079.5,511C 1080.19,508.205 1080.69,505.372 1081,502.5C 1084.29,501.61 1084.96,499.943 1083,497.5C 1082.67,497.833 1082.33,498.167 1082,498.5C 1081.63,492.821 1081.13,487.155 1080.5,481.5C 1080.79,472.039 1080.79,462.539 1080.5,453C 1080.54,449.832 1081.21,446.832 1082.5,444C 1080.5,441.159 1080,437.993 1081,434.5C 1083.08,434.536 1084.92,433.536 1086.5,431.5C 1094.17,431.5 1101.83,431.5 1109.5,431.5C 1109.5,474.833 1109.5,518.167 1109.5,561.5C 1099.83,561.5 1090.17,561.5 1080.5,561.5C 1080.83,555.463 1080.5,549.463 1079.5,543.5C 1078.89,543.624 1078.56,543.957 1078.5,544.5C 1071.35,555.25 1061.35,561.75 1048.5,564C 1020.7,568.024 1001.53,557.191 991,531.5C 989.714,526.904 988.881,522.237 988.5,517.5C 989.498,489.005 989.831,460.338 989.5,431.5C 999.833,431.5 1010.17,431.5 1020.5,431.5 Z"/></g>
<g><path style="opacity:1" fill="#a3cef6" d="M 1086.5,431.5 C 1084.92,433.536 1083.08,434.536 1081,434.5C 1080,437.993 1080.5,441.159 1082.5,444C 1081.21,446.832 1080.54,449.832 1080.5,453C 1080.79,462.539 1080.79,472.039 1080.5,481.5C 1081.13,487.155 1081.63,492.821 1082,498.5C 1082.33,498.167 1082.67,497.833 1083,497.5C 1084.96,499.943 1084.29,501.61 1081,502.5C 1080.69,505.372 1080.19,508.205 1079.5,511C 1080.51,512.168 1081.51,513.335 1082.5,514.5C 1081.1,516.87 1079.43,518.203 1077.5,518.5C 1078.24,521.095 1078.24,523.762 1077.5,526.5C 1075.18,527.625 1072.85,527.792 1070.5,527C 1068.79,528.378 1067.45,530.045 1066.5,532C 1063.89,533.727 1061.22,534.227 1058.5,533.5C 1069.54,528.781 1076.21,520.447 1078.5,508.5C 1079.5,483.672 1079.83,458.672 1079.5,433.5C 1081.46,431.852 1083.79,431.185 1086.5,431.5 Z"/></g>
<g><path style="opacity:1" fill="#163567" d="M 1352.5,483.5 C 1352.65,486.716 1351.65,489.383 1349.5,491.5C 1350.13,488.603 1351.13,485.936 1352.5,483.5 Z"/></g>
<g><path style="opacity:1" fill="#263c54" d="M 298.5,489.5 C 314.506,489.327 319.673,496.66 314,511.5C 307.869,516.196 301.369,516.696 294.5,513C 290.627,508.215 289.46,502.715 291,496.5C 292.742,493.254 295.242,490.921 298.5,489.5 Z"/></g>
<g><path style="opacity:1" fill="#283d56" d="M 420.5,489.5 C 435.009,488.837 440.509,495.503 437,509.5C 431.175,516.07 424.342,517.237 416.5,513C 410.136,503.754 411.47,495.921 420.5,489.5 Z"/></g>
<g><path style="opacity:1" fill="#9cc7f7" d="M 850.5,444.5 C 853.779,449.403 856.779,454.403 859.5,459.5C 859.5,460.833 859.5,462.167 859.5,463.5C 849.159,465.437 838.826,467.77 828.5,470.5C 827.585,462.521 823.252,457.354 815.5,455C 808.901,453.504 802.234,453.171 795.5,454C 786.237,457.252 783.403,463.419 787,472.5C 788.938,475.106 791.438,476.939 794.5,478C 812.121,480.055 829.121,484.389 845.5,491C 848.42,492.946 851.087,495.113 853.5,497.5C 852.355,498.793 852.689,499.959 854.5,501C 851.978,502.686 852.311,504.019 855.5,505C 852.264,507.016 851.598,509.35 853.5,512C 852.692,512.308 852.025,512.808 851.5,513.5C 853.837,514.517 855.504,516.184 856.5,518.5C 858.071,519.309 859.738,519.643 861.5,519.5C 861.661,523.723 860.994,527.723 859.5,531.5C 858.5,531.5 857.5,531.5 856.5,531.5C 856.509,533.308 856.009,534.975 855,536.5C 854.333,537.833 853.667,537.833 853,536.5C 852.333,539.167 851.667,539.167 851,536.5C 850.5,537.5 850,538.5 849.5,539.5C 853.438,541.899 853.438,544.399 849.5,547C 849.957,547.414 850.291,547.914 850.5,548.5C 848.424,548.758 846.091,549.258 843.5,550C 842.167,551 842.167,552 843.5,553C 842.552,553.483 841.552,553.649 840.5,553.5C 840.5,554.833 840.5,556.167 840.5,557.5C 829.802,563.093 818.302,565.427 806,564.5C 785.709,565.78 769.043,558.78 756,543.5C 752.769,538.119 750.269,532.452 748.5,526.5C 748.709,525.914 749.043,525.414 749.5,525C 758.906,523.142 768.24,520.976 777.5,518.5C 778.442,518.608 779.275,518.941 780,519.5C 780.573,521.641 781.406,523.641 782.5,525.5C 789.748,536.753 800.082,540.92 813.5,538C 819.146,537.553 823.98,535.387 828,531.5C 830.44,527.932 830.94,524.265 829.5,520.5C 827.606,516.116 824.273,513.282 819.5,512C 808.288,509.039 796.954,506.706 785.5,505C 761.496,499.676 750.662,484.843 753,460.5C 757.276,446.558 766.109,436.725 779.5,431C 800.585,423.827 820.918,425.494 840.5,436C 844,438.669 847.333,441.502 850.5,444.5 Z"/></g>
<g><path style="opacity:1" fill="#6685ac" d="M 1111.5,430.5 C 1111.17,430.5 1110.83,430.5 1110.5,430.5C 1100.17,430.5 1089.83,430.5 1079.5,430.5C 1079.5,431.5 1079.5,432.5 1079.5,433.5C 1079.83,458.672 1079.5,483.672 1078.5,508.5C 1078.5,482.167 1078.5,455.833 1078.5,429.5C 1089.68,429.172 1100.68,429.505 1111.5,430.5 Z"/></g>
<g><path style="opacity:1" fill="#141d2c" d="M 189.5,346.5 C 190.833,426.167 190.833,505.833 189.5,585.5C 188.662,585.158 188.328,584.492 188.5,583.5C 188.175,504.471 188.509,425.471 189.5,346.5 Z"/></g>
<g><path style="opacity:1" fill="#2a3e57" d="M 238.5,489.5 C 253.043,488.868 258.543,495.534 255,509.5C 249.175,516.07 242.342,517.237 234.5,513C 227.038,503.603 228.371,495.77 238.5,489.5 Z"/></g>
<g><path style="opacity:1" fill="#243852" d="M 364.5,489.5 C 357.916,498.117 357.916,506.784 364.5,515.5C 353.898,514.727 349.398,509.061 351,498.5C 353.807,492.845 358.307,489.845 364.5,489.5 Z"/></g>
<g><path style="opacity:1" fill="#293e57" d="M 479.5,489.5 C 487.28,487.753 493.447,490.087 498,496.5C 500.373,511.27 494.206,517.437 479.5,515C 468.874,506.556 468.874,498.056 479.5,489.5 Z"/></g>
<g><path style="opacity:1" fill="#a2c9f2" d="M 853.5,497.5 C 857.576,501.302 860.409,505.969 862,511.5C 866.02,532.349 858.853,547.683 840.5,557.5C 840.5,556.167 840.5,554.833 840.5,553.5C 841.552,553.649 842.552,553.483 843.5,553C 842.167,552 842.167,551 843.5,550C 846.091,549.258 848.424,548.758 850.5,548.5C 850.291,547.914 849.957,547.414 849.5,547C 853.438,544.399 853.438,541.899 849.5,539.5C 850,538.5 850.5,537.5 851,536.5C 851.667,539.167 852.333,539.167 853,536.5C 853.667,537.833 854.333,537.833 855,536.5C 856.009,534.975 856.509,533.308 856.5,531.5C 857.5,531.5 858.5,531.5 859.5,531.5C 860.994,527.723 861.661,523.723 861.5,519.5C 859.738,519.643 858.071,519.309 856.5,518.5C 855.504,516.184 853.837,514.517 851.5,513.5C 852.025,512.808 852.692,512.308 853.5,512C 851.598,509.35 852.264,507.016 855.5,505C 852.311,504.019 851.978,502.686 854.5,501C 852.689,499.959 852.355,498.793 853.5,497.5 Z"/></g>
<g><path style="opacity:1" fill="#060d1e" d="M 1536.5,513.5 C 1539.03,516.027 1541.53,516.027 1544,513.5C 1544.33,514.833 1544.67,516.167 1545,517.5C 1546.13,516.396 1546.96,516.729 1547.5,518.5C 1546.46,524.794 1546.46,531.127 1547.5,537.5C 1546.18,537.33 1545.01,537.663 1544,538.5C 1543.5,538 1543,537.5 1542.5,537C 1543.87,535.758 1544.87,534.258 1545.5,532.5C 1544.48,529.826 1544.32,527.16 1545,524.5C 1544.67,524.167 1544.33,523.833 1544,523.5C 1542.6,524.227 1541.1,524.727 1539.5,525C 1539.12,527.385 1538.79,530.051 1538.5,533C 1538.34,535.47 1539.01,537.636 1540.5,539.5C 1539.15,540.524 1538.48,541.857 1538.5,543.5C 1540.66,543.174 1542.49,542.174 1544,540.5C 1545.01,541.337 1546.18,541.67 1547.5,541.5C 1547.5,542.833 1547.5,544.167 1547.5,545.5C 1550.66,545.442 1553.66,544.776 1556.5,543.5C 1556.28,542.325 1556.61,541.325 1557.5,540.5C 1558.23,541.934 1559.23,543.1 1560.5,544C 1558.63,544.919 1556.63,545.419 1554.5,545.5C 1556.16,546.327 1557.5,547.493 1558.5,549C 1560.66,548.31 1562.82,548.477 1565,549.5C 1566.58,547.153 1567.91,547.153 1569,549.5C 1570.81,548.391 1571.65,549.058 1571.5,551.5C 1566.86,550.603 1562.19,550.436 1557.5,551C 1558.7,551.654 1558.7,552.154 1557.5,552.5C 1554.65,551.988 1553.32,550.321 1553.5,547.5C 1551.5,547.5 1549.5,547.5 1547.5,547.5C 1547.5,549.167 1547.5,550.833 1547.5,552.5C 1548.87,552.343 1550.21,552.51 1551.5,553C 1547.77,554.788 1543.94,554.954 1540,553.5C 1539.31,554.025 1538.81,554.692 1538.5,555.5C 1539.76,554.984 1540.76,555.65 1541.5,557.5C 1540.04,557.065 1539.04,557.898 1538.5,560C 1538.63,561.059 1539.13,561.892 1540,562.5C 1541.05,561.483 1542.22,561.316 1543.5,562C 1540.73,562.691 1540.07,564.191 1541.5,566.5C 1543.08,567.298 1544.74,567.798 1546.5,568C 1545.3,568.654 1545.3,569.154 1546.5,569.5C 1547.45,568.674 1548.45,568.508 1549.5,569C 1549.17,569.333 1548.83,569.667 1548.5,570C 1550.18,571.177 1551.51,572.677 1552.5,574.5C 1552.17,574.833 1551.83,575.167 1551.5,575.5C 1550.71,574.758 1550.05,573.925 1549.5,573C 1547.42,572.808 1545.42,572.308 1543.5,571.5C 1543.71,570.914 1544.04,570.414 1544.5,570C 1542.14,569.803 1540.47,568.636 1539.5,566.5C 1539.38,568.083 1538.55,569.749 1537,571.5C 1535.29,570.692 1534.46,569.359 1534.5,567.5C 1531.77,566.973 1529.1,566.14 1526.5,565C 1529.89,563.064 1530.39,560.564 1528,557.5C 1526.99,556.663 1525.82,556.33 1524.5,556.5C 1524.08,553.757 1525.24,552.424 1528,552.5C 1529.33,552.755 1530.33,553.422 1531,554.5C 1532.07,552.717 1533.57,552.217 1535.5,553C 1534.53,558.122 1534.7,563.289 1536,568.5C 1537.04,557.386 1537.54,546.719 1537.5,536.5C 1537.19,535.692 1536.69,535.025 1536,534.5C 1534.64,535.38 1533.14,535.714 1531.5,535.5C 1531.5,534.167 1531.5,532.833 1531.5,531.5C 1533.5,531.5 1535.5,531.5 1537.5,531.5C 1537.2,525.517 1536.87,519.517 1536.5,513.5 Z"/></g>
<g><path style="opacity:1" fill="#4c94ee" d="M 487.5,394.5 C 484.732,395.867 481.732,396.867 478.5,397.5C 475.892,400.179 475.558,402.845 477.5,405.5C 476.726,406.711 475.893,406.711 475,405.5C 473.129,409.382 470.629,410.049 467.5,407.5C 466.311,407.756 465.144,408.089 464,408.5C 461.322,407.329 458.489,406.662 455.5,406.5C 445.519,407.743 435.519,408.909 425.5,410C 426.701,410.903 427.535,412.069 428,413.5C 442.106,412.497 456.273,411.997 470.5,412C 472.579,414.175 474.246,416.675 475.5,419.5C 478.263,420.104 480.597,421.438 482.5,423.5C 487.271,423.05 491.605,421.55 495.5,419C 494.167,418.333 493.167,417.333 492.5,416C 490.793,415.805 489.126,415.805 487.5,416C 490.194,413.597 491.027,410.764 490,407.5C 492.636,410.158 495.802,411.325 499.5,411C 498.736,408.931 498.236,406.764 498,404.5C 497.5,402.667 496.333,401.5 494.5,401C 494.833,400.667 495.167,400.333 495.5,400C 493.631,398.499 491.797,396.999 490,395.5C 488.893,396.712 488.393,396.379 488.5,394.5C 489.167,394.5 489.833,394.5 490.5,394.5C 499.889,399.15 502.722,406.484 499,416.5C 492.304,426.402 483.971,428.069 474,421.5C 472.007,419.182 470.841,416.516 470.5,413.5C 459.162,413.333 447.828,413.5 436.5,414C 408.27,419.561 390.77,436.395 384,464.5C 383.169,471.192 383.336,477.858 384.5,484.5C 395.017,489.203 398.85,497.203 396,508.5C 393.414,514.592 388.914,518.259 382.5,519.5C 381.938,530.954 378.271,541.287 371.5,550.5C 370.167,551.5 368.833,552.5 367.5,553.5C 369.172,550.663 368.506,549.996 365.5,551.5C 364.784,550.689 363.95,550.022 363,549.5C 360.67,552.018 357.837,553.352 354.5,553.5C 367.292,546.209 373.459,535.209 373,520.5C 370.04,519.037 367.206,517.371 364.5,515.5C 357.916,506.784 357.916,498.117 364.5,489.5C 367.019,486.241 370.352,484.574 374.5,484.5C 373.716,446.813 390.716,420.979 425.5,407C 440.45,405.584 455.45,405.084 470.5,405.5C 471.638,400.358 474.638,396.691 479.5,394.5C 482.272,393.233 484.939,393.233 487.5,394.5 Z"/></g>
<g><path style="opacity:1" fill="#071323" d="M 375.5,491.5 C 386.054,491.219 390.221,496.219 388,506.5C 384.629,511.85 379.796,513.683 373.5,512C 365.036,504.105 365.703,497.272 375.5,491.5 Z"/></g>
<g><path style="opacity:1" fill="#4a95f9" d="M 487.5,394.5 C 487.833,394.5 488.167,394.5 488.5,394.5C 488.393,396.379 488.893,396.712 490,395.5C 491.797,396.999 493.631,398.499 495.5,400C 495.167,400.333 494.833,400.667 494.5,401C 496.333,401.5 497.5,402.667 498,404.5C 498.236,406.764 498.736,408.931 499.5,411C 495.802,411.325 492.636,410.158 490,407.5C 491.027,410.764 490.194,413.597 487.5,416C 489.126,415.805 490.793,415.805 492.5,416C 493.167,417.333 494.167,418.333 495.5,419C 491.605,421.55 487.271,423.05 482.5,423.5C 480.597,421.438 478.263,420.104 475.5,419.5C 474.246,416.675 472.579,414.175 470.5,412C 456.273,411.997 442.106,412.497 428,413.5C 427.535,412.069 426.701,410.903 425.5,410C 435.519,408.909 445.519,407.743 455.5,406.5C 458.489,406.662 461.322,407.329 464,408.5C 465.144,408.089 466.311,407.756 467.5,407.5C 470.629,410.049 473.129,409.382 475,405.5C 475.893,406.711 476.726,406.711 477.5,405.5C 475.558,402.845 475.892,400.179 478.5,397.5C 481.732,396.867 484.732,395.867 487.5,394.5 Z"/></g>
<g><path style="opacity:1" fill="#091324" d="M 829.5,520.5 C 830.94,524.265 830.44,527.932 828,531.5C 823.98,535.387 819.146,537.553 813.5,538C 800.082,540.92 789.748,536.753 782.5,525.5C 784.262,523.539 785.262,521.539 785.5,519.5C 786.795,520.098 788.128,520.598 789.5,521C 782.711,524.739 783.044,526.072 790.5,525C 790.306,526.43 790.306,527.93 790.5,529.5C 792.918,528.543 795.084,527.209 797,525.5C 798.84,526.833 799.34,526.666 798.5,525C 803.385,523.956 808.051,522.456 812.5,520.5C 811.948,522.331 811.948,523.997 812.5,525.5C 809.893,526.318 807.226,526.818 804.5,527C 803.027,527.71 802.36,528.876 802.5,530.5C 801.167,530.5 799.833,530.5 798.5,530.5C 798.085,532.948 799.085,534.281 801.5,534.5C 805.766,533.109 810.099,532.275 814.5,532C 818.479,529.364 822.479,526.697 826.5,524C 827.126,523.25 827.626,522.416 828,521.5C 829.107,522.712 829.607,522.379 829.5,520.5 Z"/></g>
<g><path style="opacity:1" fill="#112a53" d="M 1340.5,518.5 C 1339.65,522.553 1338.48,526.553 1337,530.5C 1336.62,531.056 1336.12,531.389 1335.5,531.5C 1336.6,526.856 1338.27,522.522 1340.5,518.5 Z"/></g>
<g><path style="opacity:1" fill="#7ea3c9" d="M 1110.5,430.5 C 1110.83,430.5 1111.17,430.5 1111.5,430.5C 1111.5,474.5 1111.5,518.5 1111.5,562.5C 1101.17,562.5 1090.83,562.5 1080.5,562.5C 1080.5,562.167 1080.5,561.833 1080.5,561.5C 1090.17,561.5 1099.83,561.5 1109.5,561.5C 1110.5,518.003 1110.83,474.337 1110.5,430.5 Z"/></g>
<g><path style="opacity:1" fill="#a3ccf5" d="M 649.5,530.5 C 676.167,530.5 702.833,530.5 729.5,530.5C 729.586,531.496 729.252,532.329 728.5,533C 720.72,534.403 712.887,534.236 705,532.5C 687.809,532.36 670.309,532.693 652.5,533.5C 650.484,533.484 649.484,532.484 649.5,530.5 Z"/></g>
<g><path style="opacity:1" fill="#527095" d="M 1078.5,544.5 C 1078.56,543.957 1078.89,543.624 1079.5,543.5C 1080.5,549.463 1080.83,555.463 1080.5,561.5C 1080.5,561.833 1080.5,562.167 1080.5,562.5C 1079.83,556.5 1079.17,550.5 1078.5,544.5 Z"/></g>
<g><path style="opacity:1" fill="#4b95f8" d="M 367.5,553.5 C 365.781,556.219 363.447,558.219 360.5,559.5C 359.075,558.864 357.408,558.864 355.5,559.5C 353.147,560.998 350.647,562.331 348,563.5C 346.703,562.216 345.536,562.383 344.5,564C 339.25,564.193 334.083,564.693 329,565.5C 315.559,565.493 302.059,565.159 288.5,564.5C 278.341,565.406 268.341,566.406 258.5,567.5C 257.342,571.335 255.009,574.335 251.5,576.5C 246.806,575.852 242.139,575.852 237.5,576.5C 237.719,575.325 237.386,574.325 236.5,573.5C 235.575,574.641 234.741,574.641 234,573.5C 233.316,572.216 233.483,571.049 234.5,570C 230.203,568.242 228.703,565.075 230,560.5C 232.027,559.307 233.527,557.64 234.5,555.5C 232.198,554.001 232.531,552.668 235.5,551.5C 240.871,550.225 246.205,550.392 251.5,552C 251.799,553.32 251.966,554.82 252,556.5C 253.016,557.634 253.683,557.301 254,555.5C 255.829,557.156 257.163,559.156 258,561.5C 286.24,561.117 314.406,560.617 342.5,560C 345.877,559.548 349.211,558.882 352.5,558C 352.167,557.667 351.833,557.333 351.5,557C 353.063,556.241 354.063,555.074 354.5,553.5C 357.837,553.352 360.67,552.018 363,549.5C 363.95,550.022 364.784,550.689 365.5,551.5C 368.506,549.996 369.172,550.663 367.5,553.5 Z"/></g>
<g><path style="opacity:1" fill="#263d5c" d="M 333.5,558.5 C 308.5,559.833 283.5,559.833 258.5,558.5C 269.187,558.832 279.854,558.499 290.5,557.5C 298.868,546.91 307.201,546.91 315.5,557.5C 321.463,558.496 327.463,558.829 333.5,558.5 Z"/></g>
<g><path style="opacity:1" fill="#4390ea" d="M 1314.5,500.5 C 1314.27,503.249 1314.61,505.916 1315.5,508.5C 1314.68,509.386 1313.68,509.719 1312.5,509.5C 1311.59,513.814 1310.26,517.98 1308.5,522C 1310.16,523.444 1310.82,525.278 1310.5,527.5C 1309.17,527.5 1307.83,527.5 1306.5,527.5C 1305.95,529.331 1305.95,530.997 1306.5,532.5C 1305.5,533.333 1304.5,534.167 1303.5,535C 1303.83,535.333 1304.17,535.667 1304.5,536C 1302.53,538.865 1301.86,541.865 1302.5,545C 1300.81,546.401 1300.14,548.234 1300.5,550.5C 1299.45,550.351 1298.45,550.517 1297.5,551C 1298.64,551.741 1298.64,552.575 1297.5,553.5C 1298.04,555.271 1298.87,555.604 1300,554.5C 1300.33,555.5 1300.67,556.5 1301,557.5C 1301.33,557.167 1301.67,556.833 1302,556.5C 1303.47,558.136 1305.31,559.136 1307.5,559.5C 1312.92,560.764 1318.25,561.764 1323.5,562.5C 1313.5,562.5 1303.5,562.5 1293.5,562.5C 1292.9,562.265 1292.57,561.765 1292.5,561C 1299.58,540.576 1306.91,520.409 1314.5,500.5 Z"/></g>
<g><path style="opacity:1" fill="#4f9af0" d="M 258.5,558.5 C 283.5,559.833 308.5,559.833 333.5,558.5C 340.859,558.501 347.859,556.834 354.5,553.5C 354.063,555.074 353.063,556.241 351.5,557C 351.833,557.333 352.167,557.667 352.5,558C 349.211,558.882 345.877,559.548 342.5,560C 314.406,560.617 286.24,561.117 258,561.5C 257.163,559.156 255.829,557.156 254,555.5C 253.683,557.301 253.016,557.634 252,556.5C 251.966,554.82 251.799,553.32 251.5,552C 246.205,550.392 240.871,550.225 235.5,551.5C 232.531,552.668 232.198,554.001 234.5,555.5C 233.527,557.64 232.027,559.307 230,560.5C 228.703,565.075 230.203,568.242 234.5,570C 233.483,571.049 233.316,572.216 234,573.5C 234.741,574.641 235.575,574.641 236.5,573.5C 237.386,574.325 237.719,575.325 237.5,576.5C 242.139,575.852 246.806,575.852 251.5,576.5C 233.834,581.335 226.334,574.669 229,556.5C 235.209,546.65 243.376,544.817 253.5,551C 255.823,553.17 257.49,555.67 258.5,558.5 Z"/></g>
<g><path style="opacity:1" fill="#263c54" d="M 481.5,549.5 C 496.793,550.619 501.626,558.286 496,572.5C 486.621,580.215 478.954,578.882 473,568.5C 472.333,564.833 472.333,561.167 473,557.5C 475.157,554.024 477.99,551.357 481.5,549.5 Z"/></g>
<g><path style="opacity:1" fill="#acd5f9" d="M 615.5,380.5 C 617.167,380.5 618.833,380.5 620.5,380.5C 619.432,381.434 618.099,381.768 616.5,381.5C 616.5,441.167 616.5,500.833 616.5,560.5C 618.5,560.5 620.5,560.5 622.5,560.5C 651.121,560.476 679.788,560.309 708.5,560C 710.355,559.578 712.189,559.078 714,558.5C 716.166,559.75 718.499,560.416 721,560.5C 723.898,559.054 726.398,559.387 728.5,561.5C 690.833,561.5 653.167,561.5 615.5,561.5C 615.5,501.167 615.5,440.833 615.5,380.5 Z"/></g>
<g><path style="opacity:1" fill="#7a9ec6" d="M 649.5,530.5 C 649.5,530.167 649.5,529.833 649.5,529.5C 677.167,529.5 704.833,529.5 732.5,529.5C 732.5,540.5 732.5,551.5 732.5,562.5C 729.167,562.5 725.833,562.5 722.5,562.5C 686.833,562.5 651.167,562.5 615.5,562.5C 615.5,562.167 615.5,561.833 615.5,561.5C 653.167,561.5 690.833,561.5 728.5,561.5C 729.5,561.5 730.5,561.5 731.5,561.5C 732.142,550.779 731.475,540.446 729.5,530.5C 702.833,530.5 676.167,530.5 649.5,530.5 Z"/></g>
<g><path style="opacity:1" fill="#83a7cc" d="M 940.5,533.5 C 948.833,533.5 957.167,533.5 965.5,533.5C 965.5,543.167 965.5,552.833 965.5,562.5C 951.656,562.829 937.99,562.496 924.5,561.5C 937.833,561.5 951.167,561.5 964.5,561.5C 964.5,552.5 964.5,543.5 964.5,534.5C 956.316,534.826 948.316,534.492 940.5,533.5 Z"/></g>
<g><path style="opacity:1" fill="#263b53" d="M 421.5,549.5 C 436.142,550.461 440.975,557.795 436,571.5C 427.073,580.114 419.406,579.114 413,568.5C 410.655,559.722 413.489,553.389 421.5,549.5 Z"/></g>
<g><path style="opacity:1" fill="#9dc5ee" d="M 1229.5,552.5 C 1215.57,564.061 1199.57,567.894 1181.5,564C 1156.26,556.257 1140.93,539.423 1135.5,513.5C 1135.35,512.448 1135.52,511.448 1136,510.5C 1136.82,512.788 1137.49,515.122 1138,517.5C 1138.25,516.376 1138.75,515.376 1139.5,514.5C 1140.63,516.074 1140.8,517.741 1140,519.5C 1139.35,518.304 1138.85,518.304 1138.5,519.5C 1139.25,521.332 1140.25,522.999 1141.5,524.5C 1142.09,524.291 1142.59,523.957 1143,523.5C 1143.25,526.2 1143.25,528.867 1143,531.5C 1144.32,531.799 1145.82,531.966 1147.5,532C 1148.73,532.779 1149.73,533.779 1150.5,535C 1149.38,536.235 1149.38,537.402 1150.5,538.5C 1149.97,539.192 1149.31,539.692 1148.5,540C 1149.95,541.117 1151.62,541.784 1153.5,542C 1155.83,545 1158.17,548 1160.5,551C 1162.71,552.273 1165.05,553.273 1167.5,554C 1166.29,554.893 1166.29,555.726 1167.5,556.5C 1168.77,555.572 1170.1,555.405 1171.5,556C 1170.83,556.333 1170.17,556.667 1169.5,557C 1171.14,558.935 1172.97,559.435 1175,558.5C 1179.28,560.361 1183.61,561.028 1188,560.5C 1189.76,560.944 1189.6,561.444 1187.5,562C 1191.51,561.84 1195.67,562.007 1200,562.5C 1203.95,562.137 1207.78,561.304 1211.5,560C 1210.83,559.667 1210.17,559.333 1209.5,559C 1214.42,557.566 1219.42,555.399 1224.5,552.5C 1226,553.052 1227.67,553.052 1229.5,552.5 Z"/></g>
<g><path style="opacity:1" fill="#041124" d="M 615.5,562.5 C 651.167,562.5 686.833,562.5 722.5,562.5C 721.391,563.29 720.058,563.79 718.5,564C 720.167,564.333 721.833,564.667 723.5,565C 722.584,565.374 721.75,565.874 721,566.5C 688.252,565.695 655.419,565.695 622.5,566.5C 620.224,565.787 617.891,565.287 615.5,565C 616.5,564.667 617.5,564.333 618.5,564C 617.263,563.768 616.263,563.268 615.5,562.5 Z"/></g>
<g><path style="opacity:1" fill="#061227" d="M 1333.5,538.5 C 1333.43,540.401 1333.77,542.234 1334.5,544C 1333.98,546.187 1332.65,547.687 1330.5,548.5C 1332.07,549.204 1333.74,550.537 1335.5,552.5C 1334.29,553.72 1334.29,554.887 1335.5,556C 1333.89,556.72 1332.39,556.554 1331,555.5C 1330.87,558.424 1329.54,561.091 1327,563.5C 1326.03,561.122 1325.36,561.456 1325,564.5C 1318.52,562.497 1312.69,563.664 1307.5,568C 1302.31,569.242 1297.64,568.242 1293.5,565C 1294.17,564.667 1294.83,564.333 1295.5,564C 1294.58,563.722 1293.92,563.222 1293.5,562.5C 1303.5,562.5 1313.5,562.5 1323.5,562.5C 1326.83,554.5 1330.17,546.5 1333.5,538.5 Z"/></g>
<g><path style="opacity:1" fill="#061127" d="M 1430.5,562.5 C 1440.83,562.5 1451.17,562.5 1461.5,562.5C 1459.71,563.309 1457.71,563.809 1455.5,564C 1457.5,564.333 1459.5,564.667 1461.5,565C 1451.38,567.655 1441.38,567.988 1431.5,566C 1430.37,564.984 1430.7,564.317 1432.5,564C 1431.58,563.722 1430.92,563.222 1430.5,562.5 Z"/></g>
<g><path style="opacity:1" fill="#060d1e" d="M 103.5,564.5 C 105.339,565.582 107.339,566.415 109.5,567C 106.308,567.697 104.308,569.53 103.5,572.5C 106.244,572.752 108.744,572.085 111,570.5C 113.625,571.988 116.458,572.822 119.5,573C 120.328,573.915 121.328,574.581 122.5,575C 121.054,577.493 121.721,579.327 124.5,580.5C 125.739,578.993 125.405,577.826 123.5,577C 125.473,576.505 127.473,576.338 129.5,576.5C 129.5,575.167 129.5,573.833 129.5,572.5C 128.022,572.762 126.689,572.429 125.5,571.5C 127.686,570.779 129.853,570.113 132,569.5C 132.483,570.448 132.649,571.448 132.5,572.5C 137.302,572.643 137.302,573.81 132.5,576C 133.624,576.249 134.624,576.749 135.5,577.5C 133.604,578.466 131.604,578.799 129.5,578.5C 129.5,579.5 129.5,580.5 129.5,581.5C 128.167,581.5 126.833,581.5 125.5,581.5C 125.5,582.833 125.5,584.167 125.5,585.5C 123.801,585.66 122.134,585.494 120.5,585C 122.107,583.951 122.773,582.451 122.5,580.5C 120.093,579.226 117.76,578.06 115.5,577C 116.833,576.333 116.833,575.667 115.5,575C 111.446,575.009 107.446,575.676 103.5,577C 103.043,577.414 102.709,577.914 102.5,578.5C 105.397,579.909 108.063,579.576 110.5,577.5C 111.5,578 112.5,578.5 113.5,579C 112.556,581.719 112.223,584.552 112.5,587.5C 110.143,587.337 107.81,587.503 105.5,588C 106.67,589.755 108.337,590.755 110.5,591C 109.663,592.011 109.33,593.178 109.5,594.5C 106.315,594.722 105.315,596.222 106.5,599C 105.167,601 103.833,601 102.5,599C 103.673,595.89 103.173,595.723 101,598.5C 100.316,596.521 100.816,594.854 102.5,593.5C 99.8333,592.833 97.1667,592.167 94.5,591.5C 93.9851,589.775 93.3184,588.108 92.5,586.5C 91.6043,587.506 90.9377,587.506 90.5,586.5C 91.9905,585.756 93.4905,585.09 95,584.5C 95.6172,583.551 95.4506,582.718 94.5,582C 96.1667,581.667 97.8333,581.333 99.5,581C 98.3777,579.387 98.8777,578.22 101,577.5C 101.483,576.552 101.649,575.552 101.5,574.5C 106.833,574.167 106.833,573.833 101.5,573.5C 101.627,571.085 101.793,568.751 102,566.5C 100.612,567.554 99.1124,567.72 97.5,567C 99.5018,565.981 101.502,565.148 103.5,564.5 Z"/></g>
<g><path style="opacity:1" fill="#478be2" d="M 360.5,559.5 C 357.887,561.718 354.887,563.385 351.5,564.5C 339.675,567.161 327.675,568.161 315.5,567.5C 307.167,567.5 298.833,567.5 290.5,567.5C 279.833,567.5 269.167,567.5 258.5,567.5C 268.341,566.406 278.341,565.406 288.5,564.5C 302.059,565.159 315.559,565.493 329,565.5C 334.083,564.693 339.25,564.193 344.5,564C 345.536,562.383 346.703,562.216 348,563.5C 350.647,562.331 353.147,560.998 355.5,559.5C 357.408,558.864 359.075,558.864 360.5,559.5 Z"/></g>
<g><path style="opacity:1" fill="#263c55" d="M 371.5,550.5 C 379.412,558.74 379.412,566.907 371.5,575C 360.335,579.588 353.668,576.088 351.5,564.5C 354.887,563.385 357.887,561.718 360.5,559.5C 363.447,558.219 365.781,556.219 367.5,553.5C 368.833,552.5 370.167,551.5 371.5,550.5 Z"/></g>
<g><path style="opacity:1" fill="#263a51" d="M 290.5,567.5 C 298.833,567.5 307.167,567.5 315.5,567.5C 311.512,576.777 304.846,579.277 295.5,575C 293.192,572.872 291.526,570.372 290.5,567.5 Z"/></g>
<g><path style="opacity:1" fill="#a2c9f4" d="M 188.5,583.5 C 188.328,584.492 188.662,585.158 189.5,585.5C 192.193,605.901 203.193,619.568 222.5,626.5C 220.512,628.475 218.678,628.475 217,626.5C 216.308,627.025 215.808,627.692 215.5,628.5C 219.039,630.846 222.872,632.513 227,633.5C 227.689,632.643 228.522,631.977 229.5,631.5C 236.952,632.409 244.452,633.075 252,633.5C 327.535,632.962 402.702,632.628 477.5,632.5C 481.447,632.363 485.114,633.03 488.5,634.5C 400.5,634.5 312.5,634.5 224.5,634.5C 201.292,628.625 187.292,613.959 182.5,590.5C 182.275,588.284 183.108,586.617 185,585.5C 185.17,507.46 185.67,429.46 186.5,351.5C 186.277,350.033 185.944,348.533 185.5,347C 186,346.5 186.5,346 187,345.5C 187.167,425.001 187.667,504.334 188.5,583.5 Z"/></g>
<g><path style="opacity:1" fill="#87abd1" d="M 535.5,591.5 C 534.873,594.089 534.873,596.589 535.5,599C 537.12,599.279 538.453,600.112 539.5,601.5C 532.354,618.806 519.688,629.973 501.5,635C 408.999,635.832 316.666,635.666 224.5,634.5C 312.5,634.5 400.5,634.5 488.5,634.5C 492.125,633.671 495.792,632.838 499.5,632C 498.09,631.632 497.09,630.799 496.5,629.5C 407.668,628.833 319.001,628.167 230.5,627.5C 319.834,627.667 409.167,627.5 498.5,627C 517.535,622.131 529.868,610.298 535.5,591.5 Z"/></g>
<g><path style="opacity:1" fill="#9fc9f5" d="M 222.5,626.5 C 225.096,627.265 227.763,627.599 230.5,627.5C 319.001,628.167 407.668,628.833 496.5,629.5C 497.09,630.799 498.09,631.632 499.5,632C 495.792,632.838 492.125,633.671 488.5,634.5C 485.114,633.03 481.447,632.363 477.5,632.5C 402.702,632.628 327.535,632.962 252,633.5C 244.452,633.075 236.952,632.409 229.5,631.5C 228.522,631.977 227.689,632.643 227,633.5C 222.872,632.513 219.039,630.846 215.5,628.5C 215.808,627.692 216.308,627.025 217,626.5C 218.678,628.475 220.512,628.475 222.5,626.5 Z"/></g>
</svg>
